<?xml version="1.0" encoding="UTF-8" standalone="no"?>
<svg
   xmlns:dc="http://purl.org/dc/elements/1.1/"
   xmlns:cc="http://creativecommons.org/ns#"
   xmlns:rdf="http://www.w3.org/1999/02/22-rdf-syntax-ns#"
   xmlns:svg="http://www.w3.org/2000/svg"
   xmlns="http://www.w3.org/2000/svg"
   xmlns:xlink="http://www.w3.org/1999/xlink"
   xmlns:sodipodi="http://sodipodi.sourceforge.net/DTD/sodipodi-0.dtd"
   xmlns:inkscape="http://www.inkscape.org/namespaces/inkscape"
   height="100%"
   version="1.1"
   viewBox="0 0 36 36"
   width="100%"
   id="svg818"
   sodipodi:docname="popout-icon.svg"
   inkscape:version="0.92.3 (2405546, 2018-03-11)">
  <metadata
     id="metadata824">
    <rdf:RDF>
      <cc:Work
         rdf:about="">
        <dc:format>image/svg+xml</dc:format>
        <dc:type
           rdf:resource="http://purl.org/dc/dcmitype/StillImage" />
      </cc:Work>
    </rdf:RDF>
  </metadata>
  <defs
     id="defs822" />
  <sodipodi:namedview
     pagecolor="#ffffff"
     bordercolor="#666666"
     borderopacity="1"
     objecttolerance="10"
     gridtolerance="10"
     guidetolerance="10"
     inkscape:pageopacity="0"
     inkscape:pageshadow="2"
     inkscape:window-width="1920"
     inkscape:window-height="1027"
     id="namedview820"
     showgrid="false"
     inkscape:zoom="32"
     inkscape:cx="24.517865"
     inkscape:cy="20.376212"
     inkscape:window-x="-8"
     inkscape:window-y="-8"
     inkscape:window-maximized="1"
     inkscape:current-layer="svg818" />
  <use
     class="ytp-svg-shadow"
     xlink:href="#ytp-id-20"
     id="use815"
     style="fill:#000000" />
  <path
     d="M 25.065116,25 V 14.873023 c 0,-1.1 -0.9,-1.98 -2,-1.98 H 9 c -1.1,0 -2,0.88 -2,1.98 V 25 c 0,1.1 0.9,2 2,2 h 14.065116 c 1.1,0 2,-0.9 2,-2 z m -2,0.02 H 9 V 14.863023 h 14.065116 z"
     id="ytp-id-20"
     style="fill:#000000"
     inkscape:connector-curvature="0"
     sodipodi:nodetypes="sssssssssccccc" />
  <path
     d="M 28.95814,16.837209 29.04186,10.98 c 0.01572,-1.0998878 -0.9,-1.9799997 -2,-1.9799997 h -9.418604 c -1.1,0 -1.984278,0.8801119 -2,1.9799997 l -0.08372,5.857209 c -0.01572,1.099888 0.9,2 2,2 h 9.418604 c 1.1,0 1.984279,-0.900112 2,-2 z m -2,0.02 H 17.539535 L 17.623255,10.97 h 9.418605 z"
     id="ytp-id-20-6"
     style="fill:#000000"
     inkscape:connector-curvature="0"
     sodipodi:nodetypes="sssssssssccccc" />
  <g
     id="g867"
     transform="rotate(45,-7.5549042,19.51041)"
     style="fill:#000000">
    <path
       style="fill:#000000;fill-opacity:1;stroke:#000000;stroke-width:0;stroke-linecap:butt;stroke-linejoin:miter;stroke-miterlimit:4;stroke-dasharray:none;stroke-opacity:1"
       d="M 4.8053079,6.3235814 8.0151916,3.1137928 10.755764,5.8544412 11.317777,6.4164692 10.316064,7.4181813 8.7744601,5.8729868 8.8285459,9.4592313 7.3999749,9.4368401 7.340454,5.8457626 5.8388351,7.3571345 Z"
       id="path841"
       inkscape:connector-curvature="0"
       sodipodi:nodetypes="ccccccccccc" />
  </g>
</svg>
